# xmcd
#
# Track frame offsets:
#	150
#	28132
#	60384
#	109529
#	151246
#	175361
#	212729
#	231482
#
# Disc length: 3344 seconds
#
# Revision: 2
# Processed by: cddbd v1.5.2PL0 Copyright (c) Steve Scherf et al.
# Submitted via: dBpowerAMP V4.0
#
DISCID=660d0e08
DTITLE=Le Tout Puissant Poly Rythmo - Nouvelle Formule
DYEAR=1900
DGENRE=Vocal
TTITLE0=Anonzoumi - Kounawo
TTITLE1=Agbaza mimin - Djomido
TTITLE2=Cheri coco - Toi and moi
TTITLE3=Poly slow (mawu)
TTITLE4=Yemalin
TTITLE5=Gle gnon - O Pierre
TTITLE6=Mikpon bodo
TTITLE7=Sokemi
EXTD=
EXTT0=
EXTT1=
EXTT2=
EXTT3=
EXTT4=
EXTT5=
EXTT6=
EXTT7=
PLAYORDER=
